<svg xmlns="http://www.w3.org/2000/svg" viewBox="0 0 36 36"><defs><style>.cls-1{fill:#67b2e8;}.cls-2{fill:#fff;}.cls-3{fill:none;stroke:#fff;stroke-miterlimit:10;}</style></defs><title>#2511 - Logo Changelog Asset 1</title><g id="Layer_2" data-name="Layer 2"><g id="Layer_1-2" data-name="Layer 1"><circle class="cls-1" cx="18" cy="18" r="18"/><circle class="cls-2" cx="11.21" cy="17.35" r="2.43"/><rect class="cls-2" x="8.52" y="21.33" width="5.4" height="4.13"/><path class="cls-2" d="M8.52,21.62a2.47,2.47,0,0,1,2.7-2.14,2.47,2.47,0,0,1,2.7,2.14"/><circle class="cls-2" cx="17.67" cy="10.25" r="2.43"/><rect class="cls-2" x="14.98" y="14.23" width="5.4" height="4.13"/><path class="cls-2" d="M15,14.52a2.47,2.47,0,0,1,2.7-2.14,2.47,2.47,0,0,1,2.7,2.14"/><circle class="cls-2" cx="24.79" cy="17.71" r="2.43"/><rect class="cls-2" x="22.09" y="21.69" width="5.4" height="4.13"/><path class="cls-2" d="M22.09,22a2.47,2.47,0,0,1,2.7-2.14A2.47,2.47,0,0,1,27.48,22"/><polygon class="cls-3" points="12.07 23.31 18.02 15.91 24.79 23.31 12.07 23.31"/></g></g></svg>